<?xml version="1.0" standalone="no"?>
<!DOCTYPE svg PUBLIC "-//W3C//DTD SVG 20010904//EN"
 "http://www.w3.org/TR/2001/REC-SVG-20010904/DTD/svg10.dtd">
<svg version="1.0" xmlns="http://www.w3.org/2000/svg"
 width="700.000000pt" height="700.000000pt" viewBox="0 0 700.000000 700.000000"
 preserveAspectRatio="xMidYMid meet">
<metadata>
Created by potrace 1.14, written by Peter Selinger 2001-2017
</metadata>
<g transform="translate(0.000000,700.000000) scale(0.100000,-0.100000)"
fill="#000000" stroke="none">
<path d="M4828 6605 c-2 -1 -34 -6 -71 -9 -55 -5 -137 -20 -262 -50 -103 -24
-295 -111 -410 -186 -266 -175 -469 -400 -770 -860 -482 -734 -556 -834 -800
-1075 -143 -142 -138 -138 -269 -234 -289 -213 -603 -341 -1006 -410 -106 -18
-181 -26 -335 -36 -77 -5 -405 -5 -470 0 -199 16 -232 15 -276 -8 -116 -59
-112 -146 15 -355 54 -89 154 -235 210 -307 17 -22 34 -44 39 -50 15 -20 49
-61 90 -109 52 -62 276 -288 338 -341 25 -22 60 -52 77 -68 141 -122 411 -305
570 -388 30 -16 59 -32 65 -37 10 -6 159 -76 262 -122 139 -63 474 -170 610
-196 11 -2 43 -8 70 -14 91 -19 100 -20 140 -25 22 -3 47 -7 55 -10 14 -4 140
-18 166 -18 7 0 10 -169 11 -546 0 -394 3 -558 12 -589 8 -28 29 -61 59 -92
80 -82 58 -80 800 -79 407 0 664 4 694 10 101 22 180 115 180 210 -2 164 -172
267 -447 270 -69 0 -209 -16 -226 -27 -5 -3 -7 20 -5 53 3 32 8 101 11 153 4
52 9 113 11 135 1 22 6 85 9 140 3 55 8 120 10 145 12 150 18 237 17 252 -1
17 17 23 173 53 377 73 851 307 1155 571 205 178 413 415 520 594 18 30 39 62
45 70 7 8 29 46 50 84 149 276 243 509 315 779 38 147 64 276 76 377 3 30 8
64 10 75 25 130 24 639 -1 776 -2 9 -6 39 -10 67 l-6 51 173 138 c95 75 178
141 183 145 111 91 211 168 216 168 10 0 29 49 29 76 0 37 -16 62 -52 80 -27
14 -53 15 -182 9 l-150 -6 89 83 c108 101 154 147 179 175 18 22 18 23 -7 66
-29 49 -62 75 -92 72 -36 -4 -109 -16 -180 -30 -38 -8 -83 -16 -100 -18 -33
-5 -305 -54 -345 -62 -14 -3 -48 -8 -77 -11 -50 -6 -52 -6 -84 32 -203 242
-475 401 -764 445 -63 10 -329 21 -337 14z m206 -799 c206 -101 250 -384 84
-543 -181 -174 -483 -89 -554 157 -40 138 26 301 151 373 96 55 223 60 319 13z
m-1014 -796 c11 -11 22 -32 25 -47 4 -16 11 -46 16 -68 5 -22 12 -50 14 -63 2
-13 6 -31 9 -40 8 -26 37 -228 44 -307 9 -93 9 -444 0 -522 -61 -534 -273
-917 -588 -1061 -110 -51 -189 -66 -330 -67 -148 0 -188 5 -298 35 l-73 20
-70 -41 c-102 -59 -166 -86 -252 -103 -215 -45 -368 19 -502 207 -11 16 -18
17 -93 3 -203 -35 -352 15 -432 146 -24 39 -26 91 -4 112 8 9 18 16 22 17 8 1
31 3 132 13 41 4 109 14 150 22 41 8 86 17 100 20 282 54 659 224 960 432 165
115 267 201 434 367 237 236 418 483 562 770 61 120 84 157 104 164 38 14 48
13 70 -9z m-460 -3331 c3 -4 5 -186 4 -405 l0 -398 -90 -1 c-49 -1 -115 -5
-147 -10 l-59 -7 6 73 c4 41 8 99 11 129 3 30 7 89 10 130 3 41 8 100 10 130
3 30 7 88 10 128 13 178 17 217 25 222 5 3 44 7 87 8 42 2 78 4 80 5 5 6 48 3
53 -4z"/>
</g>
</svg>
